# xmcd
#
# Track frame offsets:
# 225
# 14563
# 34774
# 50098
# 63233
# 79109
# 93690
# 119865
# 129177
# 160979
# 178676
#
# Disc length: 2597 seconds
#
#
# Revision: 2
# Processed by: cddbd v1.5.2PL0 Copyright (c) Steve Scherf et al.
# Submitted via: FreeRIP 2.951 
#
DISCID=990a220b
DTITLE=Old Time Blues and Boogie  Duo - Drowning In The Blues
DYEAR=2002
DGENRE=Blues
TTITLE0=Let The Good Times Roll
TTITLE1=How Long Blues
TTITLE2=Chump Man Blues
TTITLE3=Ticino Boogie
TTITLE4=Big Bill Blues
TTITLE5=Tipitina
TTITLE6=Rock Me Baby
TTITLE7=Shorty
TTITLE8=Drowning In The Blues
TTITLE9=Elmore's Grave
TTITLE10=Will The Circle Be Unbroken
EXTD=Ignaz Netzer and Thomas Scheytt\nspecial guests: Andreas Bühler,Earl Hope\nvery special guests: Cleo and Barbara Dennerlein\n\nwww.bluesandboogie.de
EXTT0=
EXTT1=
EXTT2=
EXTT3=
EXTT4=
EXTT5=
EXTT6=
EXTT7=
EXTT8=
EXTT9=
EXTT10=
PLAYORDER=
